:SAMPLES-PER-SECOND 30
:FULLY-SPECIFIED
:DEGREES
62
root  -12.9222 20.5256 0.724007 -101.186 86.628 -94.5999
RightUpLeg  -61.2258 -0.311133 7.08501
RightLeg  122.785 13.1433 -1.98816
RightFoot  -37.4992 0.729372 3.32004
RightToes  1.80444e-009 -3.18055e-015 8.94531e-016
Spine  59.0422 -0.0493376 -2.22488
Spine1  0.250901 -0.970994 -0.463054
HEad  -34.2873 2.08623 4.13038
LeftShoulder1  0 -2.69403e-036 -1.28585e-037
LeftArm  -12.6449 -54.0482 -64.6622
LeftForeArm  -125.12 -50.3999 167.417
LeftHand  -0.353634 3.04868 19.0115
RightShoulder  -2.48481e-017 0 -8.08114e-019
RightArm  1.55003 39.7691 78.1572
RightForeArm  -88.0778 47.3406 -153.035
RightHand  3.87794 -17.5197 -20.9799
LeftUpLeg  -67.0482 0.719973 1.51604
LeftLeg  126.339 -15.8727 1.70678
LeftFoot  -21.0463 -0.704581 -10.1245
LeftToes  -1.10049e-010 -1.44524e-010 4.8374e-011
63
root  -11.8583 21.1585 0.677011 -77.8768 87.124 -70.4894
RightUpLeg  -56.0462 0.110425 6.22009
RightLeg  121.743 12.8724 -1.71262
RightFoot  -38.3085 0.866069 3.82124
RightToes  1.80444e-009 -3.18055e-015 8.94531e-016
Spine  56.7755 0.0139651 -2.01069
Spine1  1.24726 -0.81366 -1.85241
HEad  -31.3211 2.39332 4.60683
LeftShoulder1  0 -2.69403e-036 -1.28585e-037
LeftArm  -12.5309 -52.6959 -63.7358
LeftForeArm  -126.257 -50.5314 167.395
LeftHand  -0.320921 3.19559 19.3375
RightShoulder  -2.48481e-017 0 -8.08114e-019
RightArm  3.22448 38.1723 78.7291
RightForeArm  -88.1363 47.3186 -153.069
RightHand  4.04802 -17.9306 -21.4035
LeftUpLeg  -65.8949 1.30652 1.84786
LeftLeg  126.865 -15.4484 1.11706
LeftFoot  -9.31341 0.291222 -9.3825
LeftToes  -1.10049e-010 -1.44524e-010 4.8374e-011
64
root  -10.7255 21.625 0.617449 -35.2013 87.8429 -26.6938
RightUpLeg  -50.9742 -0.629927 4.47131
RightLeg  121.27 13.1256 -2.14763
RightFoot  -38.746 1.03965 4.51406
RightToes  1.80444e-009 -3.18055e-015 8.94531e-016
Spine  54.1307 0.255421 -1.91756
Spine1  3.31831 -0.334503 -3.24814
HEad  -29.2575 1.78396 4.80325
LeftShoulder1  0 -2.69403e-036 -1.28585e-037
LeftArm  -12.0692 -51.4738 -64.123
LeftForeArm  -127.612 -50.559 167.473
LeftHand  -0.222021 3.44002 18.7473
RightShoulder  -2.48481e-017 0 -8.08114e-019
RightArm  3.72084 37.1318 78.0314
RightForeArm  -89.1042 47.0544 -153.503
RightHand  4.19528 -18.1787 -22.04
LeftUpLeg  -67.0145 1.30901 1.13501
LeftLeg  127.092 -13.671 -1.11948
LeftFoot  -2.67461 0.533499 -5.91688
LeftToes  -1.10049e-010 -1.44524e-010 4.8374e-011
65
root  -9.64915 22.1079 0.571689 73.7281 89.0623 83.717
RightUpLeg  -45.6614 -1.99681 1.31595
RightLeg  120.651 13.4431 -2.72244
RightFoot  -38.6639 1.25674 5.48722
RightToes  1.80444e-009 -3.18055e-015 8.94531e-016
Spine  52.5084 0.715633 -2.46371
Spine1  5.50696 0.312516 -4.85636
HEad  -27.9976 0.636957 4.82996
LeftShoulder1  0 -2.69403e-036 -1.28585e-037
LeftArm  -11.2149 -50.4266 -65.7077
LeftForeArm  -127.389 -50.8108 167.256
LeftHand  -0.201448 3.40461 17.9486
RightShoulder  -2.48481e-017 0 -8.08114e-019
RightArm  2.62854 36.6452 76.6176
RightForeArm  -90.5028 46.7231 -154.051
RightHand  4.08288 -17.6952 -22.3874
LeftUpLeg  -69.9145 0.402726 -0.547413
LeftLeg  123.68 -12.1783 -3.16423
LeftFoot  -2.78036 0.290806 -3.10994
LeftToes  -1.10049e-010 -1.44524e-010 4.8374e-011
66
root  -8.66687 22.4329 0.519662 78.9196 87.0598 90.1747
RightUpLeg  -40.9002 -2.90533 -1.68027
RightLeg  120.298 13.4868 -2.84368
RightFoot  -38.4276 1.5101 6.66517
RightToes  1.80444e-009 -3.18055e-015 8.94531e-016
Spine  51.8199 0.978404 -2.47531
Spine1  6.80431 1.11225 -6.65053
HEad  -27.2815 -0.409057 5.23863
LeftShoulder1  0 -2.69403e-036 -1.28585e-037
LeftArm  -9.80127 -49.566 -67.771
LeftForeArm  -125.668 -51.3181 166.716
LeftHand  -0.329767 3.03339 18.3258
RightShoulder  -2.48481e-017 0 -8.08114e-019
RightArm  1.34154 36.2042 75.5591
RightForeArm  -90.671 46.5599 -154.282
RightHand  3.72559 -16.611 -22.1837
LeftUpLeg  -73.8958 -0.51085 -1.92141
LeftLeg  116.326 -12.4024 -2.99263
LeftFoot  -5.0509 0.237967 -3.50092
LeftToes  -1.10049e-010 -1.44524e-010 4.8374e-011
67
root  -7.76861 22.5004 0.444559 94.4395 85.848 106.755
RightUpLeg  -36.9233 -2.846 -3.82966
RightLeg  120.611 13.3389 -2.56959
RightFoot  -38.1915 1.8639 8.31094
RightToes  1.80444e-009 -3.18055e-015 8.94531e-016
Spine  51.955 1.02896 -1.81691
Spine1  7.2288 2.03811 -8.64857
HEad  -27.2234 -0.983181 6.35671
LeftShoulder1  0 -2.69403e-036 -1.28585e-037
LeftArm  -8.40272 -49.1189 -69.3734
LeftForeArm  -124.433 -51.6512 166.346
LeftHand  -0.425422 2.7975 18.8847
RightShoulder  -2.48481e-017 0 -8.08114e-019
RightArm  1.10605 35.7853 75.462
RightForeArm  -89.8717 46.5344 -154.262
RightHand  3.54022 -16.0302 -22.1324
LeftUpLeg  -77.6215 -0.613949 -2.93658
LeftLeg  107.26 -13.2992 -0.73964
LeftFoot  -6.6976 0.273502 -5.01439
LeftToes  -1.10049e-010 -1.44524e-010 4.8374e-011
